<svg version="1.2" xmlns="http://www.w3.org/2000/svg" viewBox="0 0 800 800" width="800" height="800">
	<title>412-ai</title>
	<defs>
		<linearGradient id="g1" x2="1" gradientUnits="userSpaceOnUse" gradientTransform="matrix(-106.496,77.557,-73.229,-100.553,607.125,480.654)">
			<stop offset="0" stop-color="#da1c5c"/>
			<stop offset="1" stop-color="#9e1f63"/>
		</linearGradient>
		<linearGradient id="g2" x2="1" gradientUnits="userSpaceOnUse" gradientTransform="matrix(191.296,92.628,-79.038,163.231,288.322,163.036)">
			<stop offset="0" stop-color="#ee4168"/>
			<stop offset="1" stop-color="#9e1f63"/>
		</linearGradient>
		<linearGradient id="g3" x2="1" gradientUnits="userSpaceOnUse" gradientTransform="matrix(-61.305,272.76,-210.183,-47.24,706.501,263.694)">
			<stop offset="0" stop-color="#da1c5c"/>
			<stop offset="1" stop-color="#9e1f63"/>
		</linearGradient>
	</defs>
	<style>
		tspan { white-space:pre } 
		.s0 { fill: url(#g1) } 
		.t1 { font-size: 46px;fill: #ffffff;font-weight: 400;font-family: "Ephesis-Regular", "Ephesis" } 
		.s2 { fill: url(#g2) } 
		.s3 { fill: url(#g3) } 
	</style>
	<g id="Layer 3">
		<g id="&lt;Group&gt;">
			<g id="&lt;Group&gt;">
				<g id="&lt;Group&gt;">
					<path id="&lt;Compound Path&gt;" fill-rule="evenodd" class="s0" d="m554.8 324c0 19.3-9.9 36.5-26.6 46.2l-119.6 69-48.3 27.9-35.1 20.2c-8.3 4.9-17.5 7.3-26.6 7.3-9.2 0-18.4-2.4-26.7-7.3-16.7-9.6-26.7-26.9-26.7-46.2v-234.3c0-19.3 10-36.5 26.7-46.2 16.7-9.6 36.6-9.6 53.3 0l43.9 25.3 159.1 91.9c16.7 9.6 26.6 26.9 26.6 46.2zm-42.7 0c0-1.9-0.5-6.4-5.3-9.2l-139.2-80.4-63.7-36.8c-1.9-1-3.7-1.4-5.3-1.4-2.4 0-4.4 0.9-5.3 1.4-1.6 1-5.3 3.7-5.3 9.2v234.3c0 5.6 3.7 8.3 5.3 9.2 1.6 0.9 5.8 2.8 10.6 0l58-33.5 17-9.8 127.9-73.8c4.8-2.8 5.3-7.4 5.3-9.2z"/>
					<text id="" style="transform: matrix(1,0,0,1,283,614)" >
					</text>
					<text id="MoviezHub" style="transform: matrix(1,0,0,1,293.552,307)" >
						<tspan x="0" y="24" class="t1">M</tspan><tspan  y="24" class="t1">o</tspan><tspan  y="24" class="t1">v</tspan><tspan  y="24" class="t1">i</tspan><tspan  y="24" class="t1">e</tspan><tspan  y="24" class="t1">z</tspan><tspan  y="24" class="t1">H</tspan><tspan  y="24" class="t1">u</tspan><tspan  y="24" class="t1">b</tspan><tspan  y="24" class="t1">
</tspan>
					</text>
				</g>
				<path id="&lt;Path&gt;" class="s2" d="m408.6 439.2l-83.4 48.1c-8.3 4.9-17.5 7.3-26.6 7.3-9.2 0-18.4-2.4-26.7-7.3-16.7-9.6-26.7-26.9-26.7-46.2v-179.2l42.8 46.4v132.8c0 5.6 3.7 8.3 5.3 9.2 1.6 0.9 5.8 2.8 10.6 0l75-43.3z"/>
				<path id="&lt;Path&gt;" class="s3" d="m554.8 324c0 19.3-9.9 36.5-26.6 46.2l-119.6 69-48.3 27.9 1.6-50.3 17-9.8 127.9-73.8c4.8-2.8 5.3-7.4 5.3-9.2 0-1.9-0.5-6.4-5.3-9.2l-139.2-80.4 1.5-48.5 159.1 91.9c16.7 9.6 26.6 26.9 26.6 46.2z"/>
			</g>
		</g>
	</g>
	<text id="" style="transform: matrix(1,0,0,1,202,542)" >
	</text>
</svg>